# xmcd
#
# Track frame offsets:
#	150
#	11607
#	21681
#	33884
#	47065
#	59107
#	71831
#	83980
#	97244
#	111979
#	125979
#	141351
#	153496
#
# Disc length: 2254 seconds
#
# Revision: 2
# Processed by: cddbd v1.5.2PL0 Copyright (c) Steve Scherf et al.
# Submitted via: EasyCDDAExtractor 15.3.0.1
#
DISCID=cb08cc0d
DTITLE=Karel Gott - CD 19 - Karel Gott Dnes
DYEAR=1980
DGENRE=Tsekki Pop
TTITLE0=Dan Z Lasky Sve
TTITLE1=Pisu Pet
TTITLE2=Kdo Vi, Kde Je Ta Plaz
TTITLE3=Dam Ti Svuj Trun
TTITLE4=Ja Se Smal
TTITLE5=Pulnocni Laska
TTITLE6=Poupatko
TTITLE7=Leto Jak Ma Byt
TTITLE8=Kam Se Schoulis?
TTITLE9=Kavarna Sladky Raj
TTITLE10=Beatles
TTITLE11=Jak Malo Vis
TTITLE12=Otoc Se Mnou Stranek Par
EXTD=
EXTT0=
EXTT1=
EXTT2=
EXTT3=
EXTT4=
EXTT5=
EXTT6=
EXTT7=
EXTT8=
EXTT9=
EXTT10=
EXTT11=
EXTT12=
PLAYORDER=
